<svg xmlns="http://www.w3.org/2000/svg" width="100" height="100" viewBox="0 0 100 100">
  <!-- Background Circle -->
  <circle cx="50" cy="50" r="48" fill="#E1F5FE" stroke="#03A9F4" stroke-width="2" />
  
  <!-- Person Silhouette -->
  <g>
    <!-- Head -->
    <circle cx="50" cy="40" r="15" fill="#8D6E63" />
    
    <!-- Face Details -->
    <g fill="#5D4037">
      <!-- Eyes -->
      <ellipse cx="43" cy="37" rx="2" ry="3" />
      <ellipse cx="57" cy="37" rx="2" ry="3" />
      
      <!-- Eyebrows -->
      <path d="M40,33 Q43,31 46,33" stroke="#5D4037" stroke-width="1.5" fill="none" />
      <path d="M54,33 Q57,31 60,33" stroke="#5D4037" stroke-width="1.5" fill="none" />
      
      <!-- Smile -->
      <path d="M43,45 Q50,48 57,45" stroke="#5D4037" stroke-width="1.5" fill="none" />
    </g>
    
    <!-- Hair -->
    <path d="M35,30 Q35,20 50,20 Q65,20 65,30" fill="#3E2723" />
    <path d="M35,30 Q40,25 50,25 Q60,25 65,30" fill="#3E2723" />
    <rect x="35" y="30" width="30" height="5" fill="#3E2723" />
    
    <!-- Neck -->
    <rect x="47" y="55" width="6" height="5" fill="#A1887F" />
    
    <!-- Body/Shoulders -->
    <path d="M30,70 Q50,60 70,70 L70,85 Q50,75 30,85 Z" fill="#1976D2" />
    
    <!-- Collar -->
    <path d="M47,60 L40,65 L50,70 L60,65 L53,60" fill="#FFFFFF" />
  </g>
  
  <!-- Bamboo Decoration -->
  <g transform="translate(20, 30)">
    <!-- Bamboo Stalk -->
    <rect x="0" y="0" width="3" height="40" rx="1.5" fill="#33691E" />
    
    <!-- Bamboo Joints -->
    <rect x="-0.5" y="10" width="4" height="1" rx="0.5" fill="#1B5E20" />
    <rect x="-0.5" y="20" width="4" height="1" rx="0.5" fill="#1B5E20" />
    <rect x="-0.5" y="30" width="4" height="1" rx="0.5" fill="#1B5E20" />
    
    <!-- Bamboo Leaves -->
    <path d="M0,10 Q5,5 10,7 Q5,12 0,10" fill="#4CAF50" opacity="0.8" />
    <path d="M0,20 Q5,15 10,17 Q5,22 0,20" fill="#4CAF50" opacity="0.8" />
  </g>
  
  <!-- 5-Star Rating -->
  <g transform="translate(50, 80)">
    <!-- Stars -->
    <g fill="#FFC107" transform="scale(0.7)">
      <!-- Star 1 -->
      <path d="M-40,0 L-37.5,-7.5 L-30,-7.5 L-35,-12.5 L-32.5,-20 L-40,-15 L-47.5,-20 L-45,-12.5 L-50,-7.5 L-42.5,-7.5 Z" />
      
      <!-- Star 2 -->
      <path d="M-20,0 L-17.5,-7.5 L-10,-7.5 L-15,-12.5 L-12.5,-20 L-20,-15 L-27.5,-20 L-25,-12.5 L-30,-7.5 L-22.5,-7.5 Z" />
      
      <!-- Star 3 -->
      <path d="M0,0 L2.5,-7.5 L10,-7.5 L5,-12.5 L7.5,-20 L0,-15 L-7.5,-20 L-5,-12.5 L-10,-7.5 L-2.5,-7.5 Z" />
      
      <!-- Star 4 -->
      <path d="M20,0 L22.5,-7.5 L30,-7.5 L25,-12.5 L27.5,-20 L20,-15 L12.5,-20 L15,-12.5 L10,-7.5 L17.5,-7.5 Z" />
      
      <!-- Star 5 -->
      <path d="M40,0 L42.5,-7.5 L50,-7.5 L45,-12.5 L47.5,-20 L40,-15 L32.5,-20 L35,-12.5 L30,-7.5 L37.5,-7.5 Z" />
    </g>
  </g>
  
  <!-- Camera Accessory -->
  <g transform="translate(75, 45)">
    <!-- Camera Body -->
    <rect x="-8" y="-5" width="16" height="10" rx="2" fill="#424242" />
    
    <!-- Camera Lens -->
    <circle cx="0" cy="0" r="4" fill="#212121" stroke="#757575" stroke-width="1" />
    <circle cx="0" cy="0" r="2" fill="#424242" />
    <circle cx="0" cy="0" r="1" fill="#BDBDBD" />
    
    <!-- Camera Flash -->
    <rect x="4" y="-4" width="3" height="3" rx="1" fill="#BDBDBD" />
    
    <!-- Camera Strap -->
    <path d="M-8,-2 L-12,-8 M8,-2 L12,-8" stroke="#757575" stroke-width="1" stroke-dasharray="1,1" />
  </g>
</svg>