<svg xmlns="http://www.w3.org/2000/svg" width="100" height="100" viewBox="0 0 100 100">
  <!-- Background Circle -->
  <circle cx="50" cy="50" r="48" fill="#FFF3E0" stroke="#FF9800" stroke-width="2" />
  
  <!-- Person Silhouette -->
  <g>
    <!-- Head -->
    <circle cx="50" cy="40" r="15" fill="#FFCC80" />
    
    <!-- Face Details -->
    <g fill="#F57C00">
      <!-- Eyes -->
      <ellipse cx="43" cy="37" rx="2" ry="3" />
      <ellipse cx="57" cy="37" rx="2" ry="3" />
      
      <!-- Eyebrows -->
      <path d="M40,33 Q43,31 46,33" stroke="#F57C00" stroke-width="1.5" fill="none" />
      <path d="M54,33 Q57,31 60,33" stroke="#F57C00" stroke-width="1.5" fill="none" />
      
      <!-- Smile -->
      <path d="M43,45 Q50,50 57,45" stroke="#F57C00" stroke-width="1.5" fill="none" />
    </g>
    
    <!-- Hair -->
    <path d="M35,30 Q35,20 50,20 Q65,20 65,30" fill="#3E2723" />
    <path d="M65,30 Q65,35 60,35 L65,40 Q65,45 60,45 L65,50 Q60,55 55,50" fill="#3E2723" />
    <path d="M35,30 Q35,35 40,35 L35,40 Q35,45 40,45 L35,50 Q40,55 45,50" fill="#3E2723" />
    
    <!-- Neck -->
    <rect x="47" y="55" width="6" height="5" fill="#FFB74D" />
    
    <!-- Body/Shoulders -->
    <path d="M30,70 Q50,60 70,70 L70,85 Q50,75 30,85 Z" fill="#FF5722" />
    
    <!-- Collar -->
    <path d="M47,60 L40,65 L50,70 L60,65 L53,60" fill="#FFFFFF" />
  </g>
  
  <!-- Bamboo Decoration -->
  <g transform="translate(20, 70)">
    <!-- Bamboo Stalk -->
    <rect x="0" y="-30" width="3" height="30" rx="1.5" fill="#33691E" />
    
    <!-- Bamboo Joints -->
    <rect x="-0.5" y="-25" width="4" height="1" rx="0.5" fill="#1B5E20" />
    <rect x="-0.5" y="-15" width="4" height="1" rx="0.5" fill="#1B5E20" />
    <rect x="-0.5" y="-5" width="4" height="1" rx="0.5" fill="#1B5E20" />
    
    <!-- Bamboo Leaves -->
    <path d="M0,-25 Q5,-30 10,-28 Q5,-23 0,-25" fill="#4CAF50" opacity="0.8" />
    <path d="M0,-15 Q5,-20 10,-18 Q5,-13 0,-15" fill="#4CAF50" opacity="0.8" />
  </g>
  
  <!-- 5-Star Rating -->
  <g transform="translate(50, 80)">
    <!-- Stars -->
    <g fill="#FFC107" transform="scale(0.7)">
      <!-- Star 1 -->
      <path d="M-40,0 L-37.5,-7.5 L-30,-7.5 L-35,-12.5 L-32.5,-20 L-40,-15 L-47.5,-20 L-45,-12.5 L-50,-7.5 L-42.5,-7.5 Z" />
      
      <!-- Star 2 -->
      <path d="M-20,0 L-17.5,-7.5 L-10,-7.5 L-15,-12.5 L-12.5,-20 L-20,-15 L-27.5,-20 L-25,-12.5 L-30,-7.5 L-22.5,-7.5 Z" />
      
      <!-- Star 3 -->
      <path d="M0,0 L2.5,-7.5 L10,-7.5 L5,-12.5 L7.5,-20 L0,-15 L-7.5,-20 L-5,-12.5 L-10,-7.5 L-2.5,-7.5 Z" />
      
      <!-- Star 4 -->
      <path d="M20,0 L22.5,-7.5 L30,-7.5 L25,-12.5 L27.5,-20 L20,-15 L12.5,-20 L15,-12.5 L10,-7.5 L17.5,-7.5 Z" />
      
      <!-- Star 5 -->
      <path d="M40,0 L42.5,-7.5 L50,-7.5 L45,-12.5 L47.5,-20 L40,-15 L32.5,-20 L35,-12.5 L30,-7.5 L37.5,-7.5 Z" />
    </g>
  </g>
  
  <!-- Camping Accessory -->
  <g transform="translate(75, 40)">
    <!-- Tent -->
    <path d="M-10,10 L0,-5 L10,10 Z" fill="#4CAF50" stroke="#388E3C" stroke-width="1" />
    <path d="M-5,10 L0,0 L5,10 Z" fill="#FFFFFF" opacity="0.3" />
    
    <!-- Campfire -->
    <circle cx="0" cy="15" r="3" fill="#FF9800">
      <animate attributeName="opacity" values="1;0.7;1" dur="1s" repeatCount="indefinite" />
    </circle>
    
    <!-- Fire Flames -->
    <path d="M0,15 Q1,12 0,10 Q-1,12 0,15" fill="#FF5722">
      <animate attributeName="d" values="M0,15 Q1,12 0,10 Q-1,12 0,15;M0,15 Q0.5,11 0,9 Q-0.5,11 0,15;M0,15 Q1,12 0,10 Q-1,12 0,15" dur="0.8s" repeatCount="indefinite" />
    </path>
  </g>
</svg>