<svg xmlns="http://www.w3.org/2000/svg" width="50" height="50" viewBox="0 0 50 50">
  <!-- Background Circle -->
  <circle cx="25" cy="25" r="23" fill="#4CAF50" opacity="0.9" />
  
  <!-- Arrow Up -->
  <path d="M25,15 L15,25 L20,25 L20,35 L30,35 L30,25 L35,25 Z" fill="#FFFFFF" />
  
  <!-- Bamboo Decoration -->
  <g transform="translate(10, 25) scale(0.5)">
    <!-- Bamboo Stalk -->
    <rect x="0" y="-20" width="3" height="20" rx="1.5" fill="#33691E" />
    
    <!-- Bamboo Joints -->
    <rect x="-0.5" y="-15" width="4" height="1" rx="0.5" fill="#1B5E20" />
    <rect x="-0.5" y="-5" width="4" height="1" rx="0.5" fill="#1B5E20" />
    
    <!-- Bamboo Leaves -->
    <path d="M0,-15 Q5,-20 10,-18 Q5,-13 0,-15" fill="#81C784" opacity="0.8" />
    <path d="M0,-5 Q5,-10 10,-8 Q5,-3 0,-5" fill="#81C784" opacity="0.8" />
  </g>
  
  <!-- Bamboo Decoration (Right) -->
  <g transform="translate(40, 25) scale(0.5)">
    <!-- Bamboo Stalk -->
    <rect x="0" y="-20" width="3" height="20" rx="1.5" fill="#33691E" />
    
    <!-- Bamboo Joints -->
    <rect x="-0.5" y="-15" width="4" height="1" rx="0.5" fill="#1B5E20" />
    <rect x="-0.5" y="-5" width="4" height="1" rx="0.5" fill="#1B5E20" />
    
    <!-- Bamboo Leaves -->
    <path d="M0,-15 Q-5,-20 -10,-18 Q-5,-13 0,-15" fill="#81C784" opacity="0.8" />
    <path d="M0,-5 Q-5,-10 -10,-8 Q-5,-3 0,-5" fill="#81C784" opacity="0.8" />
  </g>
  
  <!-- Hover Animation -->
  <circle cx="25" cy="25" r="23" fill="transparent" stroke="#FFFFFF" stroke-width="2" opacity="0">
    <animate attributeName="opacity" values="0;0.5;0" dur="2s" repeatCount="indefinite" />
    <animate attributeName="r" values="23;25;23" dur="2s" repeatCount="indefinite" />
  </circle>
</svg>