<svg width="100" height="100" viewBox="0 0 100 100" xmlns="http://www.w3.org/2000/svg">
  <!-- Bamboo Stalks Group 1 -->
  <g>
    <line x1="10" y1="0" x2="10" y2="100" stroke="#4CAF50" stroke-width="2" stroke-dasharray="10 5" />
    <line x1="15" y1="0" x2="15" y2="100" stroke="#4CAF50" stroke-width="1.5" stroke-dasharray="8 4" />
    <line x1="20" y1="0" x2="20" y2="100" stroke="#4CAF50" stroke-width="2.5" stroke-dasharray="12 6" />
  </g>
  
  <!-- Bamboo Stalks Group 2 -->
  <g transform="translate(30, 5)">
    <line x1="10" y1="0" x2="10" y2="100" stroke="#4CAF50" stroke-width="2" stroke-dasharray="10 5" />
    <line x1="15" y1="0" x2="15" y2="100" stroke="#4CAF50" stroke-width="1.5" stroke-dasharray="8 4" />
    <line x1="20" y1="0" x2="20" y2="100" stroke="#4CAF50" stroke-width="2.5" stroke-dasharray="12 6" />
  </g>
  
  <!-- Bamboo Stalks Group 3 -->
  <g transform="translate(60, -5)">
    <line x1="10" y1="0" x2="10" y2="100" stroke="#4CAF50" stroke-width="2" stroke-dasharray="10 5" />
    <line x1="15" y1="0" x2="15" y2="100" stroke="#4CAF50" stroke-width="1.5" stroke-dasharray="8 4" />
    <line x1="20" y1="0" x2="20" y2="100" stroke="#4CAF50" stroke-width="2.5" stroke-dasharray="12 6" />
  </g>
  
  <!-- Bamboo Leaves Group 1 -->
  <g transform="translate(5, 15)">
    <path d="M0,0 C5,-5 15,-5 20,0 C15,5 5,5 0,0 Z" fill="#4CAF50" opacity="0.3" />
    <path d="M0,20 C5,15 15,15 20,20 C15,25 5,25 0,20 Z" fill="#4CAF50" opacity="0.3" />
    <path d="M0,40 C5,35 15,35 20,40 C15,45 5,45 0,40 Z" fill="#4CAF50" opacity="0.3" />
  </g>
  
  <!-- Bamboo Leaves Group 2 -->
  <g transform="translate(35, 25)">
    <path d="M0,0 C5,-5 15,-5 20,0 C15,5 5,5 0,0 Z" fill="#4CAF50" opacity="0.3" />
    <path d="M0,20 C5,15 15,15 20,20 C15,25 5,25 0,20 Z" fill="#4CAF50" opacity="0.3" />
    <path d="M0,40 C5,35 15,35 20,40 C15,45 5,45 0,40 Z" fill="#4CAF50" opacity="0.3" />
  </g>
  
  <!-- Bamboo Leaves Group 3 -->
  <g transform="translate(65, 10)">
    <path d="M0,0 C5,-5 15,-5 20,0 C15,5 5,5 0,0 Z" fill="#4CAF50" opacity="0.3" />
    <path d="M0,20 C5,15 15,15 20,20 C15,25 5,25 0,20 Z" fill="#4CAF50" opacity="0.3" />
    <path d="M0,40 C5,35 15,35 20,40 C15,45 5,45 0,40 Z" fill="#4CAF50" opacity="0.3" />
    <path d="M0,60 C5,55 15,55 20,60 C15,65 5,65 0,60 Z" fill="#4CAF50" opacity="0.3" />
  </g>
  
  <!-- Small Decorative Elements -->
  <circle cx="10" cy="25" r="1" fill="#4CAF50" opacity="0.5" />
  <circle cx="15" cy="40" r="1" fill="#4CAF50" opacity="0.5" />
  <circle cx="20" cy="60" r="1" fill="#4CAF50" opacity="0.5" />
  <circle cx="40" cy="15" r="1" fill="#4CAF50" opacity="0.5" />
  <circle cx="45" cy="35" r="1" fill="#4CAF50" opacity="0.5" />
  <circle cx="50" cy="55" r="1" fill="#4CAF50" opacity="0.5" />
  <circle cx="70" cy="20" r="1" fill="#4CAF50" opacity="0.5" />
  <circle cx="75" cy="45" r="1" fill="#4CAF50" opacity="0.5" />
  <circle cx="80" cy="70" r="1" fill="#4CAF50" opacity="0.5" />
</svg>