<svg xmlns="http://www.w3.org/2000/svg" width="120" height="120" viewBox="0 0 120 120">
  <!-- Background Circle -->
  <circle cx="60" cy="60" r="58" fill="#E8F5E9" stroke="#4CAF50" stroke-width="2"/>
  
  <!-- Tent -->
  <g>
    <!-- Main Tent -->
    <path d="M30,90 L60,35 L90,90 Z" fill="#FF9800" stroke="#E65100" stroke-width="2"/>
    
    <!-- Tent Opening -->
    <path d="M50,90 L60,70 L70,90 Z" fill="#FFFFFF" stroke="#E65100" stroke-width="1"/>
    
    <!-- Tent Poles -->
    <line x1="60" y1="35" x2="60" y2="25" stroke="#8D6E63" stroke-width="2"/>
  </g>
  
  <!-- Bamboo Trees -->
  <g>
    <!-- Tree 1 -->
    <line x1="25" y1="90" x2="25" y2="60" stroke="#4CAF50" stroke-width="3"/>
    <circle cx="25" cy="60" r="5" fill="#4CAF50"/>
    <circle cx="25" cy="55" r="4" fill="#4CAF50"/>
    <circle cx="25" cy="50" r="3" fill="#4CAF50"/>
    
    <!-- Tree 2 -->
    <line x1="95" y1="90" x2="95" y2="55" stroke="#4CAF50" stroke-width="3"/>
    <circle cx="95" cy="55" r="5" fill="#4CAF50"/>
    <circle cx="95" cy="50" r="4" fill="#4CAF50"/>
    <circle cx="95" cy="45" r="3" fill="#4CAF50"/>
  </g>
  
  <!-- Family Silhouettes -->
  <g fill="#333333">
    <!-- Adult 1 -->
    <circle cx="40" cy="80" r="3"/>
    <path d="M40,83 L40,90 M40,85 L36,88 M40,85 L44,88"/>
    
    <!-- Adult 2 -->
    <circle cx="50" cy="80" r="3"/>
    <path d="M50,83 L50,90 M50,85 L46,88 M50,85 L54,88"/>
    
    <!-- Child -->
    <circle cx="45" cy="85" r="2"/>
    <path d="M45,87 L45,92 M45,89 L43,91 M45,89 L47,91"/>
  </g>
  
  <!-- Campfire -->
  <g>
    <circle cx="75" cy="80" r="5" fill="#FFA000"/>
    <path d="M75,75 Q78,70 75,65 Q72,70 75,75" fill="#FF5722"/>
    <path d="M70,80 Q65,78 68,75 Q70,77 70,80" fill="#FF5722"/>
    <path d="M80,80 Q85,78 82,75 Q80,77 80,80" fill="#FF5722"/>
    
    <!-- Stones around fire -->
    <circle cx="70" cy="85" r="2" fill="#9E9E9E"/>
    <circle cx="73" cy="87" r="2" fill="#9E9E9E"/>
    <circle cx="77" cy="87" r="2" fill="#9E9E9E"/>
    <circle cx="80" cy="85" r="2" fill="#9E9E9E"/>
  </g>
  
  <!-- Stars in Sky -->
  <g fill="#FFC107">
    <circle cx="20" cy="30" r="1"/>
    <circle cx="30" cy="25" r="1"/>
    <circle cx="40" cy="20" r="1"/>
    <circle cx="80" cy="25" r="1"/>
    <circle cx="90" cy="30" r="1"/>
    <circle cx="100" cy="20" r="1"/>
  </g>
  
  <!-- Moon -->
  <path d="M85,30 A15,15 0 0,1 100,45 A15,15 0 0,1 85,60 A15,15 0 0,0 100,45 A15,15 0 0,0 85,30" fill="#FFF176"/>
</svg>