<svg xmlns="http://www.w3.org/2000/svg" width="60" height="30" viewBox="0 0 60 30">
  <!-- Toggle Background -->
  <rect x="5" y="5" width="50" height="20" rx="10" fill="#E0E0E0" />
  
  <!-- Toggle Switch -->
  <circle cx="15" cy="15" r="10" fill="#FFFFFF" stroke="#BDBDBD" stroke-width="1">
    <!-- This will be controlled by JavaScript to move between positions -->
  </circle>
  
  <!-- Sun Icon (Light Mode) -->
  <g transform="translate(15, 15)" fill="#FFC107">
    <circle cx="0" cy="0" r="5" />
    <g stroke="#FFC107" stroke-width="1.5">
      <line x1="0" y1="-8" x2="0" y2="-6" />
      <line x1="0" y1="6" x2="0" y2="8" />
      <line x1="-8" y1="0" x2="-6" y2="0" />
      <line x1="6" y1="0" x2="8" y2="0" />
      <line x1="-5.5" y1="-5.5" x2="-4" y2="-4" />
      <line x1="4" y1="4" x2="5.5" y2="5.5" />
      <line x1="-5.5" y1="5.5" x2="-4" y2="4" />
      <line x1="4" y1="-4" x2="5.5" y2="-5.5" />
    </g>
  </g>
  
  <!-- Moon Icon (Dark Mode) -->
  <g transform="translate(45, 15)">
    <circle cx="0" cy="0" r="5" fill="#3F51B5" />
    <circle cx="-2" cy="-1" r="2" fill="#7986CB" opacity="0.8" />
    <circle cx="2" cy="2" r="1" fill="#7986CB" opacity="0.6" />
  </g>
  
  <!-- Bamboo Decoration -->
  <g transform="translate(30, 3) scale(0.4)">
    <!-- Bamboo Stalk -->
    <rect x="0" y="0" width="3" height="20" rx="1.5" fill="#33691E" />
    
    <!-- Bamboo Joints -->
    <rect x="-0.5" y="5" width="4" height="1" rx="0.5" fill="#1B5E20" />
    <rect x="-0.5" y="15" width="4" height="1" rx="0.5" fill="#1B5E20" />
    
    <!-- Bamboo Leaves -->
    <path d="M0,5 Q5,0 10,2 Q5,7 0,5" fill="#4CAF50" opacity="0.8" />
    <path d="M0,15 Q5,10 10,12 Q5,17 0,15" fill="#4CAF50" opacity="0.8" />
  </g>
</svg>