<svg xmlns="http://www.w3.org/2000/svg" xmlns:xlink="http://www.w3.org/1999/xlink" width="1920" height="1080" viewBox="0 0 1920 1080">
  <!-- Background Gradient -->
  <defs>
    <linearGradient id="bg-gradient" x1="0%" y1="0%" x2="0%" y2="100%">
      <stop offset="0%" stop-color="#1a472a" stop-opacity="0.8"/>
      <stop offset="100%" stop-color="#2d6a4f" stop-opacity="0.9"/>
    </linearGradient>
    
    <!-- Bamboo Pattern -->
    <pattern id="bamboo-pattern" x="0" y="0" width="200" height="200" patternUnits="userSpaceOnUse">
      <!-- Bamboo Stalk -->
      <rect x="95" y="0" width="10" height="200" fill="#4CAF50" opacity="0.3"/>
      <!-- Bamboo Joints -->
      <rect x="90" y="40" width="20" height="5" rx="2" fill="#4CAF50" opacity="0.4"/>
      <rect x="90" y="100" width="20" height="5" rx="2" fill="#4CAF50" opacity="0.4"/>
      <rect x="90" y="160" width="20" height="5" rx="2" fill="#4CAF50" opacity="0.4"/>
      <!-- Bamboo Leaves -->
      <path d="M105,30 Q130,10 120,40 Z" fill="#4CAF50" opacity="0.3"/>
      <path d="M105,90 Q130,70 120,100 Z" fill="#4CAF50" opacity="0.3"/>
      <path d="M105,150 Q130,130 120,160 Z" fill="#4CAF50" opacity="0.3"/>
      <path d="M95,50 Q70,30 80,60 Z" fill="#4CAF50" opacity="0.3"/>
      <path d="M95,110 Q70,90 80,120 Z" fill="#4CAF50" opacity="0.3"/>
      <path d="M95,170 Q70,150 80,180 Z" fill="#4CAF50" opacity="0.3"/>
    </pattern>
    
    <!-- Water Pattern -->
    <pattern id="water-pattern" x="0" y="0" width="400" height="100" patternUnits="userSpaceOnUse">
      <path d="M0,50 Q50,20 100,50 Q150,80 200,50 Q250,20 300,50 Q350,80 400,50" stroke="#2196F3" stroke-width="3" fill="none" opacity="0.3"/>
      <path d="M0,70 Q50,40 100,70 Q150,100 200,70 Q250,40 300,70 Q350,100 400,70" stroke="#2196F3" stroke-width="2" fill="none" opacity="0.2"/>
    </pattern>
    
    <!-- Tent Shape -->
    <symbol id="tent" viewBox="0 0 100 80">
      <path d="M10,70 L50,20 L90,70 Z" fill="#FF9800" opacity="0.8"/>
      <path d="M30,70 L50,40 L70,70 Z" fill="#FFFFFF" opacity="0.3"/>
    </symbol>
  </defs>
  
  <!-- Main Background -->
  <rect width="1920" height="1080" fill="url(#bg-gradient)"/>
  
  <!-- Bamboo Forest Background -->
  <rect width="1920" height="1080" fill="url(#bamboo-pattern)" opacity="0.6"/>
  
  <!-- Water at Bottom -->
  <rect x="0" y="800" width="1920" height="280" fill="#2196F3" opacity="0.2"/>
  <rect x="0" y="800" width="1920" height="280" fill="url(#water-pattern)"/>
  
  <!-- Mountains in Background -->
  <path d="M0,500 L300,200 L600,450 L900,150 L1200,350 L1500,200 L1800,300 L1920,250 L1920,800 L0,800 Z" fill="#1a472a" opacity="0.5"/>
  
  <!-- Camping Area -->
  <use xlink:href="#tent" x="300" y="650" width="150" height="120"/>
  <use xlink:href="#tent" x="1500" y="680" width="120" height="100"/>
  
  <!-- Bamboo Clusters -->
  <g opacity="0.7">
    <!-- Cluster 1 -->
    <rect x="100" y="400" width="15" height="400" rx="7" fill="#4CAF50"/>
    <rect x="130" y="450" width="15" height="350" rx="7" fill="#4CAF50"/>
    <rect x="160" y="500" width="15" height="300" rx="7" fill="#4CAF50"/>
    
    <!-- Cluster 2 -->
    <rect x="1700" y="450" width="15" height="350" rx="7" fill="#4CAF50"/>
    <rect x="1730" y="400" width="15" height="400" rx="7" fill="#4CAF50"/>
    <rect x="1760" y="480" width="15" height="320" rx="7" fill="#4CAF50"/>
    
    <!-- Scattered Bamboo -->
    <rect x="500" y="600" width="12" height="200" rx="6" fill="#4CAF50"/>
    <rect x="1200" y="550" width="12" height="250" rx="6" fill="#4CAF50"/>
    <rect x="800" y="650" width="12" height="150" rx="6" fill="#4CAF50"/>
  </g>
  
  <!-- Boat on Water -->
  <path d="M1000,850 Q1050,830 1100,850 L1100,870 Q1050,850 1000,870 Z" fill="#8D6E63"/>
  <path d="M1040,830 L1040,850" stroke="#8D6E63" stroke-width="3"/>
  <path d="M1040,830 L1060,810" stroke="#8D6E63" stroke-width="2"/>
  <path d="M1060,810 L1080,830" stroke="#8D6E63" stroke-width="2"/>
  <path d="M1080,830 L1080,850" stroke="#8D6E63" stroke-width="3"/>
  
  <!-- Overlay for Text Readability -->
  <rect width="1920" height="1080" fill="rgba(0,0,0,0.3)"/>
</svg>