<svg xmlns="http://www.w3.org/2000/svg" width="120" height="120" viewBox="0 0 120 120">
  <!-- Background Circle -->
  <circle cx="60" cy="60" r="58" fill="#E1F5FE" stroke="#2196F3" stroke-width="2"/>
  
  <!-- Water -->
  <path d="M10,80 Q30,70 50,80 Q70,90 90,80 Q110,70 130,80" stroke="#2196F3" stroke-width="2" fill="#2196F3" fill-opacity="0.2"/>
  <path d="M10,85 Q30,75 50,85 Q70,95 90,85 Q110,75 130,85" stroke="#2196F3" stroke-width="1" fill="#2196F3" fill-opacity="0.1"/>
  
  <!-- Bamboo Boat -->
  <g>
    <!-- Boat Hull -->
    <path d="M30,80 Q60,70 90,80 L90,85 Q60,75 30,85 Z" fill="#8D6E63" stroke="#5D4037" stroke-width="1"/>
    
    <!-- Boat Decorations -->
    <path d="M35,75 L35,65 M45,73 L45,63 M55,72 L55,62 M65,72 L65,62 M75,73 L75,63 M85,75 L85,65" stroke="#8D6E63" stroke-width="2"/>
    
    <!-- Flower Decorations -->
    <g>
      <!-- Flower 1 -->
      <circle cx="35" cy="65" r="3" fill="#F48FB1"/>
      <circle cx="35" cy="65" r="1" fill="#FFF59D"/>
      
      <!-- Flower 2 -->
      <circle cx="55" cy="62" r="3" fill="#F48FB1"/>
      <circle cx="55" cy="62" r="1" fill="#FFF59D"/>
      
      <!-- Flower 3 -->
      <circle cx="75" cy="63" r="3" fill="#F48FB1"/>
      <circle cx="75" cy="63" r="1" fill="#FFF59D"/>
      
      <!-- Flower Garland -->
      <path d="M30,68 Q60,58 90,68" stroke="#81C784" stroke-width="1" fill="none" stroke-dasharray="2,2"/>
    </g>
  </g>
  
  <!-- Couple Silhouette -->
  <g>
    <!-- Person 1 (Bride) -->
    <circle cx="50" cy="60" r="4" fill="#333333"/>
    <path d="M50,64 L50,75" stroke="#333333" stroke-width="2"/>
    <path d="M50,75 L45,80" stroke="#333333" stroke-width="2"/>
    <path d="M50,75 L55,80" stroke="#333333" stroke-width="2"/>
    <path d="M50,68 L45,73" stroke="#333333" stroke-width="2"/>
    <path d="M50,68 L55,73" stroke="#333333" stroke-width="2"/>
    <!-- Dress/Veil -->
    <path d="M46,64 Q50,80 54,64" fill="#FFFFFF" stroke="#CCCCCC" stroke-width="1"/>
    <path d="M50,56 Q55,58 50,64" fill="#FFFFFF" stroke="#CCCCCC" stroke-width="1"/>
    
    <!-- Person 2 (Groom) -->
    <circle cx="70" cy="60" r="4" fill="#333333"/>
    <path d="M70,64 L70,75" stroke="#333333" stroke-width="2"/>
    <path d="M70,75 L65,80" stroke="#333333" stroke-width="2"/>
    <path d="M70,75 L75,80" stroke="#333333" stroke-width="2"/>
    <path d="M70,68 L65,73" stroke="#333333" stroke-width="2"/>
    <path d="M70,68 L75,73" stroke="#333333" stroke-width="2"/>
    <!-- Suit -->
    <path d="M66,64 L70,68 L74,64" fill="#333333" stroke="#333333" stroke-width="1"/>
    
    <!-- Heart -->
    <path d="M60,55 Q55,45 60,50 Q65,45 60,55" fill="#F44336"/>
  </g>
  
  <!-- Bamboo Trees on Shore -->
  <g>
    <!-- Left Shore -->
    <path d="M10,80 L25,80 L25,90 L10,90 Z" fill="#8D6E63" fill-opacity="0.6"/>
    
    <!-- Right Shore -->
    <path d="M95,80 L110,80 L110,90 L95,90 Z" fill="#8D6E63" fill-opacity="0.6"/>
    
    <!-- Bamboo Left -->
    <line x1="15" y1="80" x2="15" y2="40" stroke="#4CAF50" stroke-width="2"/>
    <line x1="20" y1="80" x2="20" y2="45" stroke="#4CAF50" stroke-width="2"/>
    
    <!-- Bamboo Right -->
    <line x1="100" y1="80" x2="100" y2="35" stroke="#4CAF50" stroke-width="2"/>
    <line x1="105" y1="80" x2="105" y2="40" stroke="#4CAF50" stroke-width="2"/>
    
    <!-- Bamboo Leaves -->
    <path d="M15,40 Q5,35 15,30" stroke="#4CAF50" stroke-width="1" fill="#4CAF50"/>
    <path d="M15,50 Q25,45 20,40" stroke="#4CAF50" stroke-width="1" fill="#4CAF50"/>
    <path d="M20,45 Q10,40 15,35" stroke="#4CAF50" stroke-width="1" fill="#4CAF50"/>
    <path d="M20,55 Q30,50 25,45" stroke="#4CAF50" stroke-width="1" fill="#4CAF50"/>
    
    <path d="M100,35 Q90,30 95,25" stroke="#4CAF50" stroke-width="1" fill="#4CAF50"/>
    <path d="M100,45 Q110,40 105,35" stroke="#4CAF50" stroke-width="1" fill="#4CAF50"/>
    <path d="M105,40 Q95,35 100,30" stroke="#4CAF50" stroke-width="1" fill="#4CAF50"/>
    <path d="M105,50 Q115,45 110,40" stroke="#4CAF50" stroke-width="1" fill="#4CAF50"/>
  </g>
  
  <!-- Sun/Sky -->
  <circle cx="30" cy="30" r="10" fill="#FFC107" stroke="#FF9800" stroke-width="1"/>
  <path d="M30,15 L30,20 M20,20 L23,23 M15,30 L20,30 M20,40 L23,37 M30,45 L30,40 M40,40 L37,37 M45,30 L40,30 M40,20 L37,23" stroke="#FF9800" stroke-width="1"/>
</svg>