<svg xmlns="http://www.w3.org/2000/svg" width="200" height="200" viewBox="0 0 200 200">
  <!-- Background Circle -->
  <circle cx="100" cy="100" r="95" fill="#E8F5E9" stroke="#4CAF50" stroke-width="2" />
  
  <!-- Sky Background -->
  <path d="M20,140 C20,80 180,80 180,140 L180,160 C180,170 20,170 20,160 Z" fill="#BBDEFB" />
  
  <!-- Grass -->
  <path d="M20,140 C20,140 180,140 180,140 L180,160 C180,170 20,170 20,160 Z" fill="#81C784" />
  
  <!-- Bamboo Trees (Left) -->
  <g transform="translate(30, 100)">
    <!-- Bamboo Stalks -->
    <rect x="0" y="0" width="3" height="60" rx="1.5" fill="#33691E" />
    <rect x="8" y="5" width="3" height="55" rx="1.5" fill="#33691E" />
    <rect x="16" y="2" width="3" height="58" rx="1.5" fill="#33691E" />
    
    <!-- Bamboo Joints -->
    <rect x="-0.5" y="10" width="4" height="1" rx="0.5" fill="#1B5E20" />
    <rect x="-0.5" y="25" width="4" height="1" rx="0.5" fill="#1B5E20" />
    <rect x="-0.5" y="40" width="4" height="1" rx="0.5" fill="#1B5E20" />
    
    <rect x="7.5" y="15" width="4" height="1" rx="0.5" fill="#1B5E20" />
    <rect x="7.5" y="30" width="4" height="1" rx="0.5" fill="#1B5E20" />
    <rect x="7.5" y="45" width="4" height="1" rx="0.5" fill="#1B5E20" />
    
    <rect x="15.5" y="12" width="4" height="1" rx="0.5" fill="#1B5E20" />
    <rect x="15.5" y="27" width="4" height="1" rx="0.5" fill="#1B5E20" />
    <rect x="15.5" y="42" width="4" height="1" rx="0.5" fill="#1B5E20" />
    
    <!-- Bamboo Leaves -->
    <path d="M0,10 Q5,5 10,7 Q5,12 0,10" fill="#4CAF50" opacity="0.8" />
    <path d="M8,15 Q13,10 18,12 Q13,17 8,15" fill="#4CAF50" opacity="0.8" />
    <path d="M16,12 Q21,7 26,9 Q21,14 16,12" fill="#4CAF50" opacity="0.8" />
    
    <path d="M0,25 Q5,20 10,22 Q5,27 0,25" fill="#4CAF50" opacity="0.8" />
    <path d="M8,30 Q13,25 18,27 Q13,32 8,30" fill="#4CAF50" opacity="0.8" />
    <path d="M16,27 Q21,22 26,24 Q21,29 16,27" fill="#4CAF50" opacity="0.8" />
  </g>
  
  <!-- Bamboo Trees (Right) -->
  <g transform="translate(150, 100)">
    <!-- Bamboo Stalks -->
    <rect x="0" y="0" width="3" height="60" rx="1.5" fill="#33691E" />
    <rect x="8" y="5" width="3" height="55" rx="1.5" fill="#33691E" />
    <rect x="16" y="2" width="3" height="58" rx="1.5" fill="#33691E" />
    
    <!-- Bamboo Joints -->
    <rect x="-0.5" y="10" width="4" height="1" rx="0.5" fill="#1B5E20" />
    <rect x="-0.5" y="25" width="4" height="1" rx="0.5" fill="#1B5E20" />
    <rect x="-0.5" y="40" width="4" height="1" rx="0.5" fill="#1B5E20" />
    
    <rect x="7.5" y="15" width="4" height="1" rx="0.5" fill="#1B5E20" />
    <rect x="7.5" y="30" width="4" height="1" rx="0.5" fill="#1B5E20" />
    <rect x="7.5" y="45" width="4" height="1" rx="0.5" fill="#1B5E20" />
    
    <rect x="15.5" y="12" width="4" height="1" rx="0.5" fill="#1B5E20" />
    <rect x="15.5" y="27" width="4" height="1" rx="0.5" fill="#1B5E20" />
    <rect x="15.5" y="42" width="4" height="1" rx="0.5" fill="#1B5E20" />
    
    <!-- Bamboo Leaves -->
    <path d="M0,10 Q-5,5 -10,7 Q-5,12 0,10" fill="#4CAF50" opacity="0.8" />
    <path d="M8,15 Q3,10 -2,12 Q3,17 8,15" fill="#4CAF50" opacity="0.8" />
    <path d="M16,12 Q11,7 6,9 Q11,14 16,12" fill="#4CAF50" opacity="0.8" />
    
    <path d="M0,25 Q-5,20 -10,22 Q-5,27 0,25" fill="#4CAF50" opacity="0.8" />
    <path d="M8,30 Q3,25 -2,27 Q3,32 8,30" fill="#4CAF50" opacity="0.8" />
    <path d="M16,27 Q11,22 6,24 Q11,29 16,27" fill="#4CAF50" opacity="0.8" />
  </g>
  
  <!-- Picnic Blanket -->
  <rect x="60" y="130" width="80" height="40" rx="5" fill="#EF5350" />
  
  <!-- Picnic Blanket Pattern -->
  <g stroke="#C62828" stroke-width="1" opacity="0.7">
    <line x1="60" y1="140" x2="140" y2="140" />
    <line x1="60" y1="150" x2="140" y2="150" />
    <line x1="60" y1="160" x2="140" y2="160" />
    
    <line x1="70" y1="130" x2="70" y2="170" />
    <line x1="80" y1="130" x2="80" y2="170" />
    <line x1="90" y1="130" x2="90" y2="170" />
    <line x1="100" y1="130" x2="100" y2="170" />
    <line x1="110" y1="130" x2="110" y2="170" />
    <line x1="120" y1="130" x2="120" y2="170" />
    <line x1="130" y1="130" x2="130" y2="170" />
  </g>
  
  <!-- Picnic Basket -->
  <rect x="70" y="135" width="20" height="15" rx="3" fill="#8D6E63" />
  <path d="M70,140 L70,135 Q70,132 73,132 L87,132 Q90,132 90,135 L90,140" fill="#8D6E63" />
  <path d="M75,132 L75,127 Q75,125 77,125 L83,125 Q85,125 85,127 L85,132" fill="#8D6E63" stroke="#5D4037" stroke-width="1" />
  
  <!-- Food Items -->
  <circle cx="100" cy="145" r="5" fill="#FFEB3B" /> <!-- Fruit/Food -->
  <rect x="110" y="140" width="10" height="10" rx="2" fill="#FFFFFF" /> <!-- Sandwich/Plate -->
  <rect x="115" y="142" width="2" height="6" rx="1" fill="#4CAF50" /> <!-- Vegetable garnish -->
  
  <!-- Family Silhouettes -->
  <g fill="#000000">
    <!-- Adult 1 -->
    <circle cx="65" cy="120" r="5" />
    <path d="M65,125 L65,135 M60,130 L70,130 M65,135 L60,145 M65,135 L70,145" stroke="#000000" stroke-width="2" fill="none" />
    
    <!-- Adult 2 -->
    <circle cx="135" cy="120" r="5" />
    <path d="M135,125 L135,135 M130,130 L140,130 M135,135 L130,145 M135,135 L140,145" stroke="#000000" stroke-width="2" fill="none" />
    
    <!-- Child 1 -->
    <circle cx="85" cy="115" r="4" />
    <path d="M85,119 L85,127 M82,123 L88,123 M85,127 L82,135 M85,127 L88,135" stroke="#000000" stroke-width="1.5" fill="none" />
    
    <!-- Child 2 -->
    <circle cx="115" cy="115" r="4" />
    <path d="M115,119 L115,127 M112,123 L118,123 M115,127 L112,135 M115,127 L118,135" stroke="#000000" stroke-width="1.5" fill="none" />
  </g>
  
  <!-- Music Notes -->
  <g fill="#9C27B0">
    <path d="M50,90 L53,85 L56,90 L53,95 Z M53,95 L53,110 M50,110 Q45,110 45,105 Q45,100 50,100 Q55,100 55,105" />
    <path d="M150,85 L153,80 L156,85 L153,90 Z M153,90 L153,105 M150,105 Q145,105 145,100 Q145,95 150,95 Q155,95 155,100" />
  </g>
  
  <!-- Decorative Elements -->
  <g>
    <!-- Bunting/Flags -->
    <path d="M40,70 L160,70" stroke="#9E9E9E" stroke-width="1" fill="none" />
    <path d="M50,70 L45,80 L55,80 Z" fill="#F44336" />
    <path d="M70,70 L65,80 L75,80 Z" fill="#2196F3" />
    <path d="M90,70 L85,80 L95,80 Z" fill="#FFEB3B" />
    <path d="M110,70 L105,80 L115,80 Z" fill="#4CAF50" />
    <path d="M130,70 L125,80 L135,80 Z" fill="#9C27B0" />
    <path d="M150,70 L145,80 L155,80 Z" fill="#FF9800" />
    
    <!-- Lanterns -->
    <g transform="translate(60, 80)">
      <path d="M0,0 L0,-5" stroke="#9E9E9E" stroke-width="1" />
      <circle cx="0" cy="0" r="5" fill="#FFEB3B" opacity="0.8" />
    </g>
    
    <g transform="translate(100, 80)">
      <path d="M0,0 L0,-5" stroke="#9E9E9E" stroke-width="1" />
      <circle cx="0" cy="0" r="5" fill="#FF9800" opacity="0.8" />
    </g>
    
    <g transform="translate(140, 80)">
      <path d="M0,0 L0,-5" stroke="#9E9E9E" stroke-width="1" />
      <circle cx="0" cy="0" r="5" fill="#FFEB3B" opacity="0.8" />
    </g>
  </g>
  
  <!-- Sun -->
  <circle cx="40" cy="50" r="12" fill="#FFEB3B">
    <animate attributeName="opacity" values="1;0.8;1" dur="3s" repeatCount="indefinite" />
  </circle>
  <g stroke="#FFC107" stroke-width="2">
    <line x1="40" y1="35" x2="40" y2="30" />
    <line x1="40" y1="70" x2="40" y2="65" />
    <line x1="25" y1="50" x2="20" y2="50" />
    <line x1="60" y1="50" x2="55" y2="50" />
    <line x1="30" y1="40" x2="25" y2="35" />
    <line x1="50" y1="60" x2="55" y2="65" />
    <line x1="30" y1="60" x2="25" y2="65" />
    <line x1="50" y1="40" x2="55" y2="35" />
  </g>
  
  <!-- Label -->
  <rect x="50" y="30" width="100" height="25" rx="12.5" fill="rgba(0,0,0,0.7)" />
  <text x="100" y="48" font-family="Arial" font-size="12" font-weight="bold" text-anchor="middle" fill="#FFFFFF">Outdoor Events</text>
</svg>