<svg xmlns="http://www.w3.org/2000/svg" width="200" height="200" viewBox="0 0 200 200">
  <!-- Background Circle -->
  <circle cx="100" cy="100" r="95" fill="#E1F5FE" stroke="#03A9F4" stroke-width="2" />
  
  <!-- Sky Background -->
  <path d="M20,140 C20,80 180,80 180,140 L180,160 C180,170 20,170 20,160 Z" fill="#BBDEFB" />
  
  <!-- Grass -->
  <path d="M20,140 C20,140 180,140 180,140 L180,160 C180,170 20,170 20,160 Z" fill="#81C784" />
  
  <!-- Bamboo Trees (Left) -->
  <g transform="translate(30, 100)">
    <!-- Bamboo Stalks -->
    <rect x="0" y="0" width="3" height="60" rx="1.5" fill="#33691E" />
    <rect x="8" y="5" width="3" height="55" rx="1.5" fill="#33691E" />
    <rect x="16" y="2" width="3" height="58" rx="1.5" fill="#33691E" />
    
    <!-- Bamboo Joints -->
    <rect x="-0.5" y="10" width="4" height="1" rx="0.5" fill="#1B5E20" />
    <rect x="-0.5" y="25" width="4" height="1" rx="0.5" fill="#1B5E20" />
    <rect x="-0.5" y="40" width="4" height="1" rx="0.5" fill="#1B5E20" />
    
    <rect x="7.5" y="15" width="4" height="1" rx="0.5" fill="#1B5E20" />
    <rect x="7.5" y="30" width="4" height="1" rx="0.5" fill="#1B5E20" />
    <rect x="7.5" y="45" width="4" height="1" rx="0.5" fill="#1B5E20" />
    
    <rect x="15.5" y="12" width="4" height="1" rx="0.5" fill="#1B5E20" />
    <rect x="15.5" y="27" width="4" height="1" rx="0.5" fill="#1B5E20" />
    <rect x="15.5" y="42" width="4" height="1" rx="0.5" fill="#1B5E20" />
    
    <!-- Bamboo Leaves -->
    <path d="M0,10 Q5,5 10,7 Q5,12 0,10" fill="#4CAF50" opacity="0.8" />
    <path d="M8,15 Q13,10 18,12 Q13,17 8,15" fill="#4CAF50" opacity="0.8" />
    <path d="M16,12 Q21,7 26,9 Q21,14 16,12" fill="#4CAF50" opacity="0.8" />
    
    <path d="M0,25 Q5,20 10,22 Q5,27 0,25" fill="#4CAF50" opacity="0.8" />
    <path d="M8,30 Q13,25 18,27 Q13,32 8,30" fill="#4CAF50" opacity="0.8" />
    <path d="M16,27 Q21,22 26,24 Q21,29 16,27" fill="#4CAF50" opacity="0.8" />
  </g>
  
  <!-- Bamboo Trees (Right) -->
  <g transform="translate(150, 100)">
    <!-- Bamboo Stalks -->
    <rect x="0" y="0" width="3" height="60" rx="1.5" fill="#33691E" />
    <rect x="8" y="5" width="3" height="55" rx="1.5" fill="#33691E" />
    <rect x="16" y="2" width="3" height="58" rx="1.5" fill="#33691E" />
    
    <!-- Bamboo Joints -->
    <rect x="-0.5" y="10" width="4" height="1" rx="0.5" fill="#1B5E20" />
    <rect x="-0.5" y="25" width="4" height="1" rx="0.5" fill="#1B5E20" />
    <rect x="-0.5" y="40" width="4" height="1" rx="0.5" fill="#1B5E20" />
    
    <rect x="7.5" y="15" width="4" height="1" rx="0.5" fill="#1B5E20" />
    <rect x="7.5" y="30" width="4" height="1" rx="0.5" fill="#1B5E20" />
    <rect x="7.5" y="45" width="4" height="1" rx="0.5" fill="#1B5E20" />
    
    <rect x="15.5" y="12" width="4" height="1" rx="0.5" fill="#1B5E20" />
    <rect x="15.5" y="27" width="4" height="1" rx="0.5" fill="#1B5E20" />
    <rect x="15.5" y="42" width="4" height="1" rx="0.5" fill="#1B5E20" />
    
    <!-- Bamboo Leaves -->
    <path d="M0,10 Q-5,5 -10,7 Q-5,12 0,10" fill="#4CAF50" opacity="0.8" />
    <path d="M8,15 Q3,10 -2,12 Q3,17 8,15" fill="#4CAF50" opacity="0.8" />
    <path d="M16,12 Q11,7 6,9 Q11,14 16,12" fill="#4CAF50" opacity="0.8" />
    
    <path d="M0,25 Q-5,20 -10,22 Q-5,27 0,25" fill="#4CAF50" opacity="0.8" />
    <path d="M8,30 Q3,25 -2,27 Q3,32 8,30" fill="#4CAF50" opacity="0.8" />
    <path d="M16,27 Q11,22 6,24 Q11,29 16,27" fill="#4CAF50" opacity="0.8" />
  </g>
  
  <!-- Glamping Tent -->
  <g transform="translate(100, 140)">
    <!-- Tent Body -->
    <path d="M-30,0 L0,-35 L30,0 Z" fill="#9C27B0" stroke="#7B1FA2" stroke-width="2" />
    <rect x="-25" y="0" width="50" height="20" rx="5" fill="#9C27B0" stroke="#7B1FA2" stroke-width="2" />
    
    <!-- Tent Entrance -->
    <path d="M-10,0 L0,-15 L10,0 Z" fill="#E1BEE7" opacity="0.7" />
    
    <!-- Tent Window -->
    <circle cx="15" cy="-15" r="5" fill="#E1BEE7" opacity="0.7" />
    
    <!-- Tent Decorations -->
    <path d="M-30,0 L-25,0" stroke="#E1BEE7" stroke-width="2" />
    <path d="M25,0 L30,0" stroke="#E1BEE7" stroke-width="2" />
    <path d="M-20,-25 L-15,-25" stroke="#E1BEE7" stroke-width="2" />
    <path d="M15,-25 L20,-25" stroke="#E1BEE7" stroke-width="2" />
  </g>
  
  <!-- Photo Frame -->
  <g transform="translate(100, 80)">
    <!-- Frame Border -->
    <rect x="-25" y="-30" width="50" height="60" rx="3" fill="none" stroke="#795548" stroke-width="4" />
    
    <!-- Frame Decoration -->
    <rect x="-21" y="-26" width="42" height="52" rx="1" fill="none" stroke="#8D6E63" stroke-width="1" stroke-dasharray="2,2" />
    
    <!-- Frame Mount -->
    <rect x="-2" y="30" width="4" height="15" fill="#795548" />
    <path d="M-10,45 L10,45 L15,50 L-15,50 Z" fill="#795548" />
  </g>
  
  <!-- Camera -->
  <g transform="translate(60, 100)">
    <!-- Camera Body -->
    <rect x="-10" y="-7" width="20" height="14" rx="2" fill="#424242" />
    
    <!-- Camera Lens -->
    <circle cx="0" cy="0" r="5" fill="#212121" stroke="#757575" stroke-width="1" />
    <circle cx="0" cy="0" r="3" fill="#424242" />
    <circle cx="0" cy="0" r="1" fill="#BDBDBD" />
    
    <!-- Camera Flash -->
    <rect x="5" y="-6" width="4" height="4" rx="1" fill="#BDBDBD" />
    
    <!-- Camera Viewfinder -->
    <rect x="-8" y="-6" width="4" height="4" rx="1" fill="#757575" />
    
    <!-- Camera Strap -->
    <path d="M-10,-3 L-15,-10 M10,-3 L15,-10" stroke="#757575" stroke-width="1" stroke-dasharray="1,1" />
  </g>
  
  <!-- Photographer -->
  <g transform="translate(60, 115)">
    <!-- Head -->
    <circle cx="0" cy="0" r="5" fill="#795548" />
    
    <!-- Body -->
    <path d="M0,5 L0,20 M-5,10 L5,10 M0,20 L-5,30 M0,20 L5,30" stroke="#795548" stroke-width="2" fill="none" />
  </g>
  
  <!-- Model Posing -->
  <g transform="translate(140, 110)">
    <!-- Head -->
    <circle cx="0" cy="0" r="5" fill="#795548" />
    
    <!-- Body with Pose -->
    <path d="M0,5 L0,15 M-8,10 L8,10 M0,15 L-10,20 M0,15 L10,20" stroke="#795548" stroke-width="2" fill="none" />
    
    <!-- Pose Gesture (Hand Up) -->
    <path d="M8,10 C10,5 15,5 15,10" stroke="#795548" stroke-width="2" fill="none" />
  </g>
  
  <!-- Decorative Elements -->
  <g>
    <!-- String Lights -->
    <path d="M40,70 C60,60 140,60 160,70" stroke="#9E9E9E" stroke-width="1" fill="none" />
    
    <circle cx="50" cy="68" r="2" fill="#FFEB3B">
      <animate attributeName="opacity" values="1;0.5;1" dur="2s" repeatCount="indefinite" />
    </circle>
    <circle cx="70" cy="65" r="2" fill="#F44336">
      <animate attributeName="opacity" values="1;0.5;1" dur="1.7s" repeatCount="indefinite" />
    </circle>
    <circle cx="90" cy="63" r="2" fill="#4CAF50">
      <animate attributeName="opacity" values="1;0.5;1" dur="1.5s" repeatCount="indefinite" />
    </circle>
    <circle cx="110" cy="63" r="2" fill="#2196F3">
      <animate attributeName="opacity" values="1;0.5;1" dur="1.8s" repeatCount="indefinite" />
    </circle>
    <circle cx="130" cy="65" r="2" fill="#9C27B0">
      <animate attributeName="opacity" values="1;0.5;1" dur="1.6s" repeatCount="indefinite" />
    </circle>
    <circle cx="150" cy="68" r="2" fill="#FFEB3B">
      <animate attributeName="opacity" values="1;0.5;1" dur="1.9s" repeatCount="indefinite" />
    </circle>
  </g>
  
  <!-- Sun -->
  <circle cx="160" cy="50" r="12" fill="#FFEB3B">
    <animate attributeName="opacity" values="1;0.8;1" dur="3s" repeatCount="indefinite" />
  </circle>
  <g stroke="#FFC107" stroke-width="2">
    <line x1="160" y1="35" x2="160" y2="30" />
    <line x1="160" y1="70" x2="160" y2="65" />
    <line x1="145" y1="50" x2="140" y2="50" />
    <line x1="175" y1="50" x2="180" y2="50" />
    <line x1="150" y1="40" x2="145" y2="35" />
    <line x1="170" y1="60" x2="175" y2="65" />
    <line x1="150" y1="60" x2="145" y2="65" />
    <line x1="170" y1="40" x2="175" y2="35" />
  </g>
  
  <!-- Photo Spot Sign -->
  <g transform="translate(40, 50)">
    <!-- Sign Post -->
    <rect x="-2" y="0" width="4" height="30" fill="#795548" />
    
    <!-- Sign Board -->
    <rect x="-15" y="-15" width="30" height="20" rx="2" fill="#FFC107" stroke="#795548" stroke-width="2" />
    
    <!-- Text -->
    <text x="0" y="-2" font-family="Arial" font-size="6" font-weight="bold" text-anchor="middle" fill="#795548">PHOTO</text>
    <text x="0" y="5" font-family="Arial" font-size="6" font-weight="bold" text-anchor="middle" fill="#795548">SPOT</text>
  </g>
  
  <!-- Label -->
  <rect x="50" y="30" width="100" height="25" rx="12.5" fill="rgba(0,0,0,0.7)" />
  <text x="100" y="48" font-family="Arial" font-size="12" font-weight="bold" text-anchor="middle" fill="#FFFFFF">Photo Spots</text>
</svg>