<svg xmlns="http://www.w3.org/2000/svg" width="200" height="50" viewBox="0 0 200 50">
  <!-- Instagram Icon -->
  <g transform="translate(25, 25)">
    <!-- Background Circle -->
    <circle cx="0" cy="0" r="20" fill="#E8F5E9" stroke="#4CAF50" stroke-width="1" />
    
    <!-- Instagram Logo -->
    <g transform="scale(0.7)">
      <!-- Camera Outline -->
      <rect x="-15" y="-15" width="30" height="30" rx="8" fill="none" stroke="#E91E63" stroke-width="3" />
      
      <!-- Camera Lens -->
      <circle cx="0" cy="0" r="7" fill="none" stroke="#E91E63" stroke-width="3" />
      
      <!-- Camera Flash -->
      <circle cx="9" cy="-9" r="2" fill="#E91E63" />
    </g>
    
    <!-- Bamboo Decoration -->
    <g transform="translate(-15, -15) scale(0.5)">
      <!-- Bamboo Stalk -->
      <rect x="0" y="0" width="3" height="20" rx="1.5" fill="#33691E" />
      
      <!-- Bamboo Joints -->
      <rect x="-0.5" y="5" width="4" height="1" rx="0.5" fill="#1B5E20" />
      <rect x="-0.5" y="15" width="4" height="1" rx="0.5" fill="#1B5E20" />
      
      <!-- Bamboo Leaves -->
      <path d="M0,5 Q5,0 10,2 Q5,7 0,5" fill="#4CAF50" opacity="0.8" />
      <path d="M0,15 Q5,10 10,12 Q5,17 0,15" fill="#4CAF50" opacity="0.8" />
    </g>
  </g>
  
  <!-- Facebook Icon -->
  <g transform="translate(100, 25)">
    <!-- Background Circle -->
    <circle cx="0" cy="0" r="20" fill="#E8F5E9" stroke="#4CAF50" stroke-width="1" />
    
    <!-- Facebook Logo -->
    <g transform="scale(0.7)">
      <!-- Facebook 'f' -->
      <path d="M-5,-15 L-5,15 M-5,0 L5,0 M5,-15 L5,15" stroke="#3F51B5" stroke-width="5" stroke-linecap="round" />
      <path d="M5,-10 L5,15 M5,-10 C5,-15 0,-15 -5,-15" stroke="#3F51B5" stroke-width="5" stroke-linecap="round" />
    </g>
    
    <!-- Bamboo Decoration -->
    <g transform="translate(-15, -15) scale(0.5)">
      <!-- Bamboo Stalk -->
      <rect x="0" y="0" width="3" height="20" rx="1.5" fill="#33691E" />
      
      <!-- Bamboo Joints -->
      <rect x="-0.5" y="5" width="4" height="1" rx="0.5" fill="#1B5E20" />
      <rect x="-0.5" y="15" width="4" height="1" rx="0.5" fill="#1B5E20" />
      
      <!-- Bamboo Leaves -->
      <path d="M0,5 Q5,0 10,2 Q5,7 0,5" fill="#4CAF50" opacity="0.8" />
      <path d="M0,15 Q5,10 10,12 Q5,17 0,15" fill="#4CAF50" opacity="0.8" />
    </g>
  </g>
  
  <!-- TikTok Icon -->
  <g transform="translate(175, 25)">
    <!-- Background Circle -->
    <circle cx="0" cy="0" r="20" fill="#E8F5E9" stroke="#4CAF50" stroke-width="1" />
    
    <!-- TikTok Logo -->
    <g transform="scale(0.7)">
      <!-- Music Note -->
      <path d="M-5,-10 L5,-10 L5,5 C5,10 -5,10 -5,5 C-5,0 5,0 5,5" fill="none" stroke="#000000" stroke-width="3" />
      <circle cx="-5" cy="5" r="3" fill="#000000" />
      
      <!-- TikTok 'd' -->
      <path d="M-10,-15 L-10,-5" stroke="#000000" stroke-width="3" />
      <path d="M-10,-15 L0,-15" stroke="#000000" stroke-width="3" />
    </g>
    
    <!-- Bamboo Decoration -->
    <g transform="translate(-15, -15) scale(0.5)">
      <!-- Bamboo Stalk -->
      <rect x="0" y="0" width="3" height="20" rx="1.5" fill="#33691E" />
      
      <!-- Bamboo Joints -->
      <rect x="-0.5" y="5" width="4" height="1" rx="0.5" fill="#1B5E20" />
      <rect x="-0.5" y="15" width="4" height="1" rx="0.5" fill="#1B5E20" />
      
      <!-- Bamboo Leaves -->
      <path d="M0,5 Q5,0 10,2 Q5,7 0,5" fill="#4CAF50" opacity="0.8" />
      <path d="M0,15 Q5,10 10,12 Q5,17 0,15" fill="#4CAF50" opacity="0.8" />
    </g>
  </g>
  
  <!-- Labels -->
  <text x="25" y="45" font-family="Arial" font-size="8" text-anchor="middle" fill="#4CAF50">Instagram</text>
  <text x="100" y="45" font-family="Arial" font-size="8" text-anchor="middle" fill="#4CAF50">Facebook</text>
  <text x="175" y="45" font-family="Arial" font-size="8" text-anchor="middle" fill="#4CAF50">TikTok</text>
</svg>